<?xml version="1.0" encoding="UTF-8"?>
<svg id="_图层_1" data-name="图层 1" xmlns="http://www.w3.org/2000/svg" viewBox="0 0 224.64 224.64">
  <defs>
    <style>
      .cls-1 {
        fill: #dd8e76;
      }

      .cls-2 {
        fill: #ebbdaf;
      }

      .cls-3 {
        fill: #ecc2b5;
      }

      .cls-4 {
        fill: #de927b;
      }

      .cls-5 {
        fill: #c41727;
      }

      .cls-6 {
        fill: #eabcad;
      }

      .cls-7 {
        fill: #dc8c74;
      }

      .cls-8 {
        fill: #de927a;
      }

      .cls-9 {
        fill: #df957e;
      }

      .cls-10 {
        fill: #ebbcae;
      }

      .cls-11 {
        fill: #c30f24;
      }

      .cls-12 {
        fill: #edc6b9;
      }

      .cls-13 {
        fill: #da846c;
      }

      .cls-14 {
        fill: #e9b8a9;
      }

      .cls-15 {
        fill: #de947c;
      }

      .cls-16 {
        fill: #df967e;
      }

      .cls-17 {
        fill: #ecc0b2;
      }

      .cls-18 {
        fill: #ecc1b3;
      }

      .cls-19 {
        fill: #edc4b7;
      }

      .cls-20 {
        fill: #df9780;
      }

      .cls-21 {
        fill: #c20d23;
      }

      .cls-22 {
        fill: #eabcae;
      }

      .cls-23 {
        fill: #dd8f77;
      }

      .cls-24 {
        fill: #df957d;
      }

      .cls-25 {
        fill: #db8770;
      }

      .cls-26 {
        fill: #ebbeb0;
      }
    </style>
  </defs>
  <path class="cls-21" d="M110.23,24.04c70.51-3.43,116.76,74.31,79.26,134.65-35.4,56.96-118.95,55.19-151.9-3.18S45.11,27.22,110.23,24.04ZM108.79,26.68c-59.37,3.26-96.97,66.94-72.32,121.09,28.63,62.9,116.9,67.57,151.92,7.9,35.05-59.73-11.05-132.75-79.6-128.98Z"/>
  <path class="cls-21" d="M109.75,49.46c47.84-3.03,82.04,45.24,61.87,89.2-19.98,43.54-80.03,49.23-108.14,10.4-28.64-39.57-2.34-96.51,46.27-99.6ZM118.43,107.17c-.44.55-.24,1.65-.24,2.4,0,1.83,0,3.68,0,5.51,0,.98-.2,2.32.24,3.12,0,2.15-.05,4.32,0,6.47.03,1.45-.04,2.41.24,3.84.3,1.51,1.14,3.08,2.97,2.87,2.06-.23,1.99-2.27,2.06-3.83.4-.25.24-.91.24-1.32.04-4.27-.13-8.57,0-12.83.02-.72-.04-1.44,0-2.16,0-.06.21-.72.24-1.2.37-5.42.33-13.51,4.92-17.01,1.78-1.36,2.45-.79,2.72,1.34,1.25,9.77,3.5,25.94,1.21,35.2-.42,1.69-1.03,4.18-2.5,5.17-1.87,1.27-6.16.6-8.64,1.43-1.96.66-5.7,4.05-2.57,5.47,2.29,1.04,5.03.8,7.5.77.53,0,1.35.18,1.68-.24.56,0,1.12,0,1.68,0,.45,0,1.18.16,1.44-.24.56,0,1.12,0,1.68,0,.53,0,1.35.18,1.68-.24,1.04,0,2.08,0,3.12,0,6.03,0,12.56.4,18.46-.24.03,0,.21-.21.57-.25,2.88-.35,9.34,1.27,10.52-2.46.51-1.63-1.21-3.74-2.84-3.99-2.42-.37-5.9.47-8.62.23-3.05-.26-3.61-2.13-4.3-4.81-.49-1.87-.37-3.28-.6-5.03-.06-.48-.19-.87-.24-1.2-.29-1.91-1.72-4.69-1.7-5.87.06-3.1.92-6.89,1.22-10.07.12-1.31-.12-2.73.03-4.05.17-1.53,1.12-3.32,1.16-4.86.05-2.16-.5-2.42.45-4.8,2.56-6.38,4.95-1.44,5.73,2.51.22,1.09.18,2.37.41,3.43.74,3.46,2.07,4.95,2.06,8.99s.99,7.28,1.2,11.25c.16,2.98-1.08,5.97,1.68,7.91,2.57,1.8,3.9.65,4.54-2.02.25-1.02.13-.61,0-1.44-.25-1.62-.66-2.88-.72-4.56-.02-.53.19-1.35-.24-1.68,0-.8,0-1.6,0-2.4,0-.6.19-1.52-.24-1.92,0-.88,0-1.76,0-2.64,0-.68.19-1.68-.24-2.16,0-.72,0-1.44,0-2.16,0-.53.18-1.35-.24-1.68-.23-4.13-1.59-14.24-3.59-17.63-2.11-3.59-8.56-5.74-12.48-6.34-.34-.45-1.15-.18-1.68-.24-3.1-.65-2.22-1.86-2.74-4.33-.35-1.65-2.12-3.03-3.82-2.85-3.36.37-3.3,4.01-4.98,6.06-1.87,2.28-6.92,2.47-9.8,3.86-7.98,3.86-8.57,15.06-8.62,22.91ZM65.45,86.55c.49.12.74.15,1.2.24,1.68.32-.11,3.35-.41,4.5-.94,3.64-1.23,7.41-1.82,11.13s-1.26,5.69-1.14,9.67c.23,7.33.9,16.73,1.93,23.96.17,1.16,1.03,5.62,1.74,6.29.53.51,3.74.27,3.47-1.07-.57-5.4-2.18-10.96-2.33-16.37-.02-.76.21-1.84-.24-2.4,0-1.91-.02-3.84,0-5.75.42-.33.23-1.15.24-1.68.11-4.42,1.23-8.77,1.44-13.19.47-.65.2-1.79.24-2.64.18-3.61,1.5-6.66,4.44-8.86.4.5.96,1.15,1.06,1.8.26,1.61.16,3.93.25,5.62.03.5.24,1.14.24,1.2.11,2.64.04,5.5,0,8.15-.4.26-.23.99-.24,1.44-.12,9.94.52,20.69,1.68,30.57.13,1.13.5,4.94,1.18,5.54.9.8,3.69-1.09,3.99-2.05.44-1.42-.65-6.44-.85-8.29-.06-.59.06-1.22,0-1.8-.06-.49-.21-.92-.24-1.2-.5-4.28-1.4-8.93-1.44-13.19,0-.53.18-1.35-.24-1.68-.01-1.27-.01-2.56,0-3.84.42-.33.23-1.15.24-1.68s-.03-1.03,0-1.55l2.14-15.36c1.22-.65,1.74.62,2.58.8.67.15,1.4-.02,2.08.08,2.77.4,2.12,1.85,2.84,3.88.5,1.41,1.84,3.31,3.18,4.02,1.7.9,2.5-.02,2.76,2.51.09.88.19,3.16-.71,3.59s-4.46-.36-5.15-1.09c-1.45-1.56-1.23-7.49-4.69-6.59-2.89.75-1.63,4.15-1.07,6.12.96,3.39,2.23,6.79,6.24,7.19,1.57.16,4.9-.48,5.84,1.11.52.88.71,2.91.33,3.87-.55,1.35-2.95,2.45-4.32,1.8-1.53-.72-1.92-4.23-4.27-3.2-1.49.65-1.7,1.72-1.78,3.13-.4.64-.41,2.19,0,2.88-.03,1.86-.09,3.91,0,5.75.03.54.23,1.05.24,1.2.4,4.93,1.04,11.4,7.43,11.27.57-.01,1.08-.23,1.2-.24.48-.03.96.02,1.44,0,.51-.03,1.14-.24,1.2-.24,1.52-.03,3.13.53,4.4.47,1.12-.06,7.8-1.89,8.87-2.41,2.59-1.26,2.76-3.35,2.79-5.96,0-.67.19-1.69-.24-2.16,0-.8,0-1.6,0-2.4,0-.88,0-1.76,0-2.64,0-.72,0-1.44,0-2.16.42-.33.23-1.15.24-1.68.02-2.46.19-5.5-1.02-7.73-.77-1.43-2.56-1.2-3.4.08-.92,1.42-.3,5.33-1.51,5.68-.52.15-5.41.12-5.83-.07-.58-.27-1.09-2.96-1.12-3.63-.14-4.01,4.79-3.72,7.28-4.83,3.04-1.37,4.36-4.36,4.87-7.48.08-.51.2-.78.24-1.44.03-.51.04-1.17,0-1.68-.05-.62-.11-.69-.24-1.2-.18-.71-.04-.98-.73-1.55-2.03-1.68-4.26-.07-4.54,2.27-.06.46.05.98,0,1.44-.34,3.11-.43,4.88-3.98,5.48-2.87.49-3.51.1-3.2-2.96.33-3.33,2.75-3.08,4.11-5.72.67-1.29,1.24-5.65,1.45-5.86.12-.12,2.96-1.2,3.19-1.24,1.59-.25,3.74,1.09,4.53-1.22,1.26-3.71-3.06-3.65-5.38-3.59-.54.01-1.13.24-1.2.24-2.15.1-4.33.12-6.47.24-.5.03-1.11.23-1.2.24-.87.05-1.77-.06-2.64,0-.5.03-1.1.23-1.2.24-2.34.15-4.88.07-7.19.24-.54.04-.99.22-1.2.24-.64.07-1.21-.05-1.93.11-1.38.3-1.85,1.22-3.11,1.47-1.33-3.66-.47-6.88-3.82-9.61s-6.29-2.17-10.12-1.49c-2.62.47-6.61,1.09-5.64,4.79.42,1.61,1.82,1.79,3.06,2.1ZM95.42,80.07c-.6,0-1.52-.19-1.92.24-2.67.02-5.76-.32-8.24.75-5.42,2.34-.95,5.36,2.86,5.26,3.43-.09,7.3-1.29,10.9-1.45.55-.02,1.12,0,1.68,0,1.81.02,3.57.34,5.39.24.92-.05,5.24-.53,5.12-1.76-.75-.75-.91-2.66-1.53-3.27-.96-.93-3.07-.05-4.3,0-3.27.13-6.67-.04-9.96,0ZM107.41,151.76c-1.66.2-2.07,1.15-2.4,2.64-.02.1-.27.24-.26.6s.25.52.26.6c.32,1.79.83,2.63,2.88,2.4l-1.44,3.59c.54-.11,2.01.18,2.36-.04.19-.12,1.64-3.61,1.78-4.09.63-2.16.92-5.36-1.99-5.7-.16-.38-1.04-.38-1.2,0ZM117.47,151.76c-2.08.29-2.16,2.04-2.16,3.84.68-.09,1.67.25,2.16-.24.41-.41.23-.9.24-1.44.33-.34.59-.38.85,0,.88,1.26-3.14,6.19-3.48,7.68h5.51c-.1-.52.14-1.49,0-1.92-.16-.48-1.46-.15-1.92-.24,1.59-1.94,4.02-7.19,0-7.67-.16-.38-1.04-.38-1.2,0ZM95.66,152c.09,1.39-.56,2.21,1.2,1.92v7.67h2.16s0-9.59,0-9.59c-.8-.4-2.5-.41-3.36,0ZM130.33,155.75c3.33-4.14-5.9-6.16-4.66-.81.14.61.95,1.11.89,1.45-.04.25-.98.98-1.12,1.53-1.33,5.14,6.68,5.26,5.64.24-.13-.62-.68-1.58-1.38-1.62-.16-.55.42-.53.63-.8Z"/>
  <path class="cls-21" d="M161.31,49.59c-.38.61-2.34-.39-2.84.64,1.86.21,3.83,1.45,2.64,3.47.49.48,3.11-3.32,2.4,0,1.01-.37,3.94.94,3.99-.6.01-.33-1.14-2.04.57-1.19,1.43.71-.48,2.48-.47,2.64,0,.21,1.96.79.97,2.18-.9,1.26-3.19.43-4.28.4-2.06-.07.81,1.6.87,1.78,1.19,3.57-4.36.99-5.95,1.28-.12-.72.18-.39.58-.48.9-.22,1.85-.38,2.77-.48-1.26-.77-.15-2.3-.24-2.39-.21-.22-2.12-.39-1.44-1.92-1.7,1.68-2.13,4.35-4.9,4.56-.45.03-2.55-.04-2.74-.27-.07-.09-.16-1.99-.27-2.37,1.74.32,2.8.86,4.37-.48.31-.27,2.47-3.48,2.55-3.77.18-.7-.89-1.24-1.4-.91s-.92,1.74-1.34,2.03c-.5.35-1.24.18-1.79.36s-1.38,1.22-2.02,1.09c-.83-.16.16-1.37.11-1.43-.19-.23-1.71.16-1.64-.8.08-1.15,2.22-.72,2.6-2.08-.74.07-1.72-.19-2.39.12-.61.28-2.85,3.51-3.6,2.75-.91-.91,3.15-3.73,3.85-3.96.66-.22,1.63.33,2.38.12-.85-.96,1.11-3.39,1.85-3.57.42-.11.74.35,1.17.43.94.18,3.27.27,3.65,1.38.09.26.12,1.3,0,1.48ZM159.43,48.67c-.31-.94-2.51-.92-2.04,0h2.04ZM157.51,51.07c-.51.28-2.06-.31-2.15-.24-.05.04-.26.98-.49,1.2.2.14,2.87-.05,2.64-.96ZM165.42,54.66c-1.57-.02-2.38-.39-3.12,1.19l1.5-.05,1.61-1.14ZM167.34,56.1c-.39-.97-1.25-.72-1.92-.12l1.92.12Z"/>
  <path class="cls-21" d="M53.94,67.37s.74-.22,1.2-.15c.68.11,1.38.84,1.81.88.58.05,1.08-.72,1.78-.49.36.93-.44,1.69,0,2.63.2.15,1.54-.99,2.48-.69,1.19.38-.6,2.01-.74,2.55-.29,1.12.1,2.61-.41,3.9-.28.71-1.51,2.11-2.27,2.29-1.66.4-1.36-.23-2.29-.86-.74-.49-.53.73-.71,1.21-.15.38-.57.67-.61,1.08-.09.87,1.33,1.92.5,2.88-2.2.47-2.35-1.28-3.37-2.41-.76-.86-2.01-1-1.68-2.52.46-.48,2.23,1.75,2.16.59-.05-.82-.77-1.72-1.03-2.57-.56-1.79-1.08-3.87-1.37-5.7.64-.13.41.16.59.47,1.12,1.89,1.38,4.5,2.52,6.48,2.72-.72.29-3.67.01-5.41-.19-1.23.22-3.87-.05-4.74-.07-.23-.28-.45-.55-.39-.57.13-2.35,2.06-2.76,2.63-.37-.63.01-1.61-.06-2.01-.1-.59-2.19-1.67-.99-2.53.76-.55,1.71.78,2.33.66s.82-1.5,2.14-1.12,1.13,3.1,1.37,3.32ZM56.1,69.76c.12-.1-.42-.63-.72-.48v.72s.72-.24.72-.24ZM54.19,72.64c.4.3,1.53-.95.62-1.7-1.36-1.11-.95,1.45-.62,1.7ZM58.02,71.68c-.85-.15-.69,1.18-.72,1.68l.72-1.68ZM55.62,75.76c.21.19,1.65-.26,1.44-1.07-.34-1.29-1.83.71-1.44,1.07Z"/>
  <path class="cls-21" d="M65.45,52.02c5.21-2.18-.98,4.61,0,5.75.42.49,1.11-1.54,1.24-1.75.38-.6,1.18-1.43,1.41-1.94.21-.46.16-1.23.36-1.37.13-.09,1.42-.4,1.63-.38,1.67.17,1.14,3.88.63,4.97.49.53,2.09-2.23,2.27-2.4.67-.65,3.49-1.74,3.38-.35-.12,1.57-2.89,3.07-3.98,4.07-2.17,2-4.54,4.27-6.46,6.48-1.4,1.61-.81,2.35-3.6,1.31-.08-1.21,1.39-1.57,2.16-2.27.73-.66,3.06-2.82,3.46-3.49.13-.21,1.57-4.19,1.58-4.43.05-.68-.08-1.34-.61-1.79-.73.88-1.79,2.15-1.98,3.29-.12.74.2,2.98-.44,3.17-2.18-.22-2.13-1.77-2.01-3.58-.51.21-.43,1.23-1.12,1.41-.65.16-2.11-.81-1.99-1.65.45-.03,1.05.12,1.44-.12.17-.1,2.16-3.17,2.16-3.37.02-1.16-3.38.03-3.61-1.68-.3-2.29,4.06-2.09,4.09.13Z"/>
  <path class="cls-21" d="M190.84,88.71c.06-.21.14-.2.24,0-.19,2.63-2,1.59-3.43.68-.33-.21-.84-.86-1.03-.9-.32-.05-1.51,1.12-2.37-.26-.1,2.41-5.57,1.01-5.86,1.21-.74.53,1.38,5.64,2.14,6.1.72.43,5.09-.93,6.35-.86.52.03.77.23,1.07.62,0,.62-3.1,1.03-3.78,1.25-2.77.88-3.81,2.54-5.85-.73-.73-1.16-2.05-4.24-1.86-5.54.17-1.21,1.44-1.35,1.44-1.93,0-.91-2.9-2-2.41-3.48.45-.47,4.05,2.94,5.16,2.87.69-.05-.31-1.13-.34-1.55-.1-1.72,2-.29,2.11-.37.06-.04.38-1.1.86-1.13.75-.05,1.76,1.52,2.22,1.87.41.31,1.29.48,1.74.95.37-.37-2.65-2.99-2.65-3.48,0-.78,2.29-.94,2.73-.81.92.27.03,1.04-.03,1.34-.13.65,2.84,3.76,3.54,4.15Z"/>
  <path class="cls-21" d="M46.96,92.57c-2.02-.57-3.97-1.4-5.95-2.08-.64-.22-3.18-.39-1.82-1.8,1.04-1.07,2.27.57,3.48.25.35-1.29-1.4-4.23.41-4.75,2.45-.71,1.04,4.22,2.33,5.73,2.37,2.77,2.6-3.45,3.97-4.21,1.18-.65,2.76-.19,2.03,1.55-1.03,2.46-1.98,4.23-2.25,7.1-.18,1.92,1.01,5.95-.49,7.42-.47.46-1.24.87-1.81.35-1.06-.96,0-2.88.12-4.2.15-1.75-.08-3.61-.03-5.36Z"/>
  <path class="cls-21" d="M128.02,31.41c.11.11,2.64-.41,2.36,1.05s-2.95.87-3.34,1.51c-.39,1.79-1.02,3.5-1.35,5.3-.28,1.54-.41,7.2-1.75,7.84-.22.1-.87.21-.95.13-.1-.11-.28-2.67-.23-2.98.1-.65.69-1.21.89-1.99.54-2.11.45-4.83,1.02-7.01-2.11.14-3.08-.82-4.69.95-.45.5-2.75,4.88-3.42,2.72-.41-1.34,1.13-2.17,1.13-3.53-.14-.53-2.04-.25-1.88-1.19.07-.41,2.11-1.53,2.63-1.49,2.04.15,1.57,1,1.55,2.54,2.85-1.72,5.42-.71,6.09-4.7.16-.98-.33-3.22,1.23-1.65,1.11,1.13.62,2.42.72,2.52Z"/>
  <path class="cls-21" d="M143.37,40.04c-.38,1.05.92,1.89.69,2.71-.25.89-1.73.55-2.13,1.37,1.02-.16,2.05-.4,2.35.89.54,2.36-2.51,1.71-4.02,2.23.12.45.92.14,1.43.36.45.19,1.42,1.56,1.33,2.05-.4,2.16-1.34.6-2.11.17-.88-.49-4.93-1.52-4.96-2.45s.74-1.73,1.67-1.34c.21-.65-.39-.36-.55-.77-.31-.78-.16-2.24.68-2.59.66-.27.22,1.06.36,1.19.16.15,2.43.47,2.39-.6-.02-.57-2.28.13-1.87-1.86.34-1.63,2.79-1.37,3.79-2.45l-.71-1.08c1.25.04,2.53-.32,3.46.74,1.54,1.74-.23,2.18-1.78,1.42ZM141.93,40.52c-.6.11-1.81.15-2.16.71.84.02,1.78.21,2.16-.71ZM139.53,44.59c-.19-.22-1.32,1.03-1.44,1.2.65.35,1.86-.7,1.44-1.2ZM142.41,44.59c-.33-.11-1.5.33-1.2.47.33.11,1.5-.33,1.2-.47Z"/>
  <path class="cls-21" d="M173.33,67.13c.13-.12-.41-1.53-.24-1.92.77-.02,1.7.15,2.13.87.84,1.41-1.01,2-.92,2.57.08.46,2.92,2.54,3.46,3.03-.06,1.04,1.04,3.21-.49,3.1-.72-.05-1.21-1.52-1.69-2.12-.66-.83-1.53-1.52-2.14-2.41-1.06,1.82-4.15,3.16-6.09,2.25-2.33-1.1-2.59-4.35-.86-6.09l.88,2.47c.57,2.83,6.35,2.04,4.44-.25-.98-1.17-3.84-1.55-3.76-4.14,1.27-.25,4.35,3.49,5.27,2.63Z"/>
  <path class="cls-21" d="M87.27,42.91c.08.08,1.92-.97,1.93.36,0,.42-3.01,2.51-1.56,2.76.88.15,4.03-4.03,2.99,1.68.76.14,1.92-.71,2.58-.19,1.16.94-1.89,1.71-2.33,2-.65.42-.86,1.46-1.67.7s-.35-1.35-.28-2.17c.11-1.35-1.05-.06-1.17.77s.72,2.42-.37,2.51c-.8.07-1.49-1.17-1.55-1.84-.1-1.07.95-2.5.71-3.69-.43-.48-1.47,2.27-2.85,1.41-1.24-.78,3.24-2.29,2.37-3.81-.81.12-1.66,1.01-2.39.12,1.33-1.37,4.38-5.22,3.59-.6Z"/>
  <path class="cls-21" d="M103.33,33.08c.16.14,2.81-.16,3.18-.29.6-.21.64-.95,1.43-.87.99.11,3.15,1.09,2.48,2.36-.99,1.87-6.4-.5-7.81.36-.28.17-1.16,2.3-1.48,2.83-.45.75-2.86,4.64-3.31,4.85-.56.26-.97-.03-1.09-.59-.18-.9,5.71-9.12,5.86-10.95.13-.63-.32-2.29.82-1.98,1.92.52-.35,4.04-.08,4.28Z"/>
  <path class="cls-21" d="M151.97,46.25c-.24.17-.83-.28-1.03-.48-.48-.47-2.1-2.59-2.54-3.22-1.03-1.48-2.04-4.36-3.11-5.46-.46-.47-1.33-.75-1.98-.6-2.06.48-4.93,2.92-7.13,3.44-.32.08-.64.15-.97.11.11-1.67,2.65-2.79,4.06-3.49,1.94-.95,4.14-1.42,5.88-2.75.76.72.42,1.84.87,2.73.35.69,1.78,1.71,2.36,2.43.8.98,4.04,5.06,4.09,6.01.02.51-.39.83-.51,1.28Z"/>
  <path class="cls-21" d="M104.53,43.87c.3.26,2.51-1.01,2.86-1.33.96-.89.46-2.01,2.29-.83,3.07,1.98-1.18,4.41-3.24,4.55-.23-.21,1.85-2.14.6-1.92-1.05.19-3.04,2.42-4.67,1.92-.42-1.99,1.27-2.91,1.92-4.55-.11-.09-2.64.76-2.39-.36.13-.6,2.29-1.25,3-1.8.34-.27.58-.92.77-.96.56-.14,2.85-.12,2.69.81-.04.25-1.68,1.68-2.02,2.07l-1.79,2.4Z"/>
  <path class="cls-21" d="M77.8,38.84c.73-.14,2.11.51,2.24,1.37.08.55-1.02,2.96-.94,4.26.07,1.07.95,1.85,1.33,2.76.81,1.93,1.86,5.01,1.57,7.08-.04.33-.31,1.06-.61,1.06-.2,0-1.87-2.31-1.93-2.61-.07-.35.36-.74.36-1.3,0-.37-.68-3.58-.82-3.75-.26-.33-1.56-.23-1.77-1.12-.18-.77,1.33-4.28.87-6.37-.09-.42-1.03-1.23-.3-1.37Z"/>
  <path class="cls-21" d="M183.12,77.97c.88-.04,1.98.4,1.37,1.39-.41.67-5.18,1.44-6.23,1.68-.62.14-1.1.59-1.7.69-.98.16-3.46.15-2.28-1.33.66-.84,7.56-2.39,8.85-2.44Z"/>
  <path class="cls-21" d="M178.61,65.45c.47.53.79.94,1.44,1.32-2.86.78-4.63-3.34-7.57-3.71-.81-.1-1.87.47-2.44-.07-.85-.79,1.75-2.55,2.65-2.05l5.2,3.78c.59-.34.98.1.72.72Z"/>
  <path class="cls-21" d="M104.97,183.44c.19.12,1.12,2.74,1.24,2.84.71.52,2.09-3.29,3.35-2.39-.48,1.09-2.37,2.41-2.75,3.36s.42,2.56-1.09,2.39c-.21-.8.31-1.75.2-2.46-.06-.35-1.5-3.13-1.75-3.2-.28-.08-1.59.05-2.04-.09-.24,1.34-.33,2.91-.71,4.21s-.96,1.09-.87-.14c.1-1.36.6-2.95.85-4.31l-1.92-.24v-.72s5.48.76,5.48.76Z"/>
  <path class="cls-21" d="M80.56,43.63c.46-1.87,2.55-2.67,3.69-3.86.63-.67.89-1.77,1.23-2.13.1-.11,2.52-1.14,2.68-1.16.67-.06,1.09,1.06.57,1.53-2.2,1.44-4.07,3.6-6.32,4.95-.6.36-1.04.81-1.85.66Z"/>
  <path class="cls-21" d="M156.95,44.39c.52-.17,2.82.13,3.53.23.97.13,2.94.46,3.81.74.76.25,1.68,1.7.59,2.17-1,.43-5.94-1.82-7.37-1.86l-.95-.73c-.06-.27.16-.48.4-.56Z"/>
  <path class="cls-21" d="M89.42,183.17l1.2,3.11c-1.93-.12-.98-2.86-2.5-3.61-.16-.08-.77-.28-.85-.22-.1.07-.63,2.32-.73,2.4-.19.14-.62-.13-.69-.4-.23-.84,1.73-4.18,1.66-5.35.21-.18,2.65.69,3.04.9,2.19,1.19,1.17,3.85-1.13,3.17ZM88.36,180.07c-.36.09-.75,1.33-.52,1.67.37.53,3.39,1.24,2.99-.32-.15-.59-2.06-1.45-2.47-1.35Z"/>
  <path class="cls-21" d="M172.54,163.19c.71-.78.78-2.55-.5-2.34-.09.01-1.18,1.97-1.34.85-.06-.4,1.11-1.77,1.44-1.92.49-.22,2.03,1.24,1.88,2.11-.45,2.72-4.01,3.93-5.82,1.36s1.34-5.49,2.99-4.43c1.24.8-1.84.82-2.28,1.33-1.73,2.02,1.79,5.05,3.63,3.03Z"/>
  <path class="cls-21" d="M42.44,135.22c.32-.31-.88-2.25.48-2.16-.08.56.72,2.25.46,2.62-.19.26-2,.57-2.51.28-2.52-1.46-1.39-6.11,2.38-5.76,3.34.31,2.63,5.31,1.23,5.02-.85-.18.16-1.14.25-1.42,1.16-3.57-5.18-3.56-4.29.18.3,1.24.75,1.38,2,1.25Z"/>
  <path class="cls-21" d="M188.6,81.68c-.27.29-2.04,1.22-2.43,1.24-.6.02-3.02-.48-3.22-1.08-.76-2.32,2.18-.62,2.61-.91.91-.62-.74-.61-.48-1.44.3-.96,3.46.43,3.86.95.25.33-.11,1.01-.34,1.25Z"/>
  <path class="cls-21" d="M72.64,175.97c.53-.34,2.29-3.61,2.51-3.6.04,0,.33.34.6.24.19.23-2.95,4.96-3.24,5.03-1.58.38-.32-4.91-.59-5.75-.93.6-1.77,2.83-2.51,3.38-.37.28-.45-.06-.84-.03-.2-.21,2.99-4.61,3.23-4.8.42-.34.84.31.84.37v5.15Z"/>
  <path class="cls-21" d="M154.4,173.81c-.29.3,2.54,3.66,2.39,3.83-.03.04-.85.27-.92.22-.22-.74-3.13-4.38-3.12-4.66,0-.17.48-.55.76-.55.7,0,4.42,2.15,4.72,1.87-.25-1.18-1.84-2.46-2.13-3.51-.13-.46.38-.34.66-.55.21.85,3.23,4.43,3.15,4.89-.08.39-.69.36-1.02.32-.75-.1-4.32-2.05-4.49-1.87Z"/>
  <path class="cls-21" d="M43.63,124.19c-.03.4.26.7.02,1.08-.75,1.22-2.98,2.49-3.86,3.71,1.31.04,3.25-.91,4.41-.95.16,0,.38.6.28.72-1.89.63-3.91,1.09-5.89,1.19-.78-.78,3.35-3.88,3.84-4.55-1.36-.01-2.87.72-4.2.73-.57,0-.44-.63-.36-.72.19-.22,5.02-.91,5.75-1.2Z"/>
  <path class="cls-21" d="M176.45,151.28c.51.78,3.41,1.82,3.73,2.4.05.09-.11.69-.14.72-.2.19-4.61-2.55-4.79-2.76-.36-.42-.24-1.07.12-1.07h5.15c.13-.58-.1-.39-.31-.54-.54-.37-2.99-1.58-3.17-1.85-.26-.39.02-.5.25-.73.78.31,5.05,2.66,4.91,3.23-.03.11-.76.6-.84.6h-4.91Z"/>
  <path class="cls-21" d="M192.04,118.67c-.04.28.09.69-.04.92s-4.13,1.91-4.75,2.2c-.33.34.02.44.35.48.54.06,3.82.1,3.96.24-.04.23.06.89,0,.96-.21.22-5.2-.75-5.99-.72-.85-.94,4.49-2.88,5.03-3.12-.14-.33-1.22-.4-1.59-.45-.96-.13-2-.13-2.97-.27l.24-.85,5.76.61Z"/>
  <path class="cls-21" d="M190.09,130.2c.1.13.1.8-.12.96-.7.51-4.71,1.24-4.89,1.42-.38.37.09.41.33.5.58.21,3.63.78,3.74.94.15.2-.13.61-.4.69-.23.07-4.14-.91-4.59-1.1-2.88-1.19,3.58-2.38,4.51-2.71l-4.3-1.21v-.94c.71.35,5.53,1.23,5.72,1.46Z"/>
  <path class="cls-21" d="M116.22,183.93c3.84-.43,4.41,6.24.17,6.21-3.67-.03-3.71-5.81-.17-6.21ZM117.89,188.85c1.44-1.43.12-4.99-2.33-3.88s-.21,6.42,2.33,3.88Z"/>
  <path class="cls-21" d="M145.92,177.02c2.73-.08,4.54,4.62,1.38,5.89-4.52,1.81-5.92-5.75-1.38-5.89ZM145.22,177.94c-2.05.62-1.31,5.01,1.33,4.47,2.87-.59,1.28-5.25-1.33-4.47Z"/>
  <path class="cls-21" d="M183.16,149.12l-5.25-2.42c.45-2.82,2.66-4.95,5.38-2.86,2.2,1.69.55,3.33-.12,5.27ZM182.92,148.16c2.45-3.8-3.04-6.34-4.07-1.92l4.07,1.92Z"/>
  <path class="cls-21" d="M187,110.52h1.92c-.13-.57-.68-3.57.36-3.36.65.14.26,2.79.36,3.36h1.92c.2-.2-.14-2.83-.15-3.34,0-.35.16-.52.5-.49.67.14.11,3.87.36,4.56-.73-.09-5.99.73-5.99-.12v-3.96h.72v3.36Z"/>
  <path class="cls-21" d="M164.47,166.14c-.4.37,2.86,2.97,2.87,3.24.02.29-.56.42-.95.24-.68-.31-2.64-3.3-3.58-3.87-.04-.27.33-.68.57-.71.79-.12,4.11,1.19,5.16,1.35.39-.38-3.11-3.22-3.11-3.48,0-.15.4-.37.6-.37.32,0,4.01,3.92,3.95,4.2-.22,1.07-4.7-.73-5.51-.59Z"/>
  <path class="cls-21" d="M82.71,179.56c.48.18,2.8.99,2.88,1.33.34,1.51-2.89-.92-3.34-.59-.02.39-.68,1.69-.49,1.91.11.12,2.93.96,3.11,1.21.13.18-.2.7-.36.71-.48.03-3.09-1.75-3.96-1.68.24-.75,2.13-5.4,2.54-5.49l3.69,1.78c.02.3-.15.57-.49.49-.45-.1-2.5-1.35-2.75-1.33-.27.02-.59,1.37-.84,1.67Z"/>
  <path class="cls-21" d="M38.6,107.88s.28.91.24.96c-2.13-.35-1.91,3.92,0,2.76.67-.4.49-3.5,2.23-3.42,2.25.1,2.07,3.95.42,4.4-.69.19-1.12-.5-.42-.92.79-.47,1.28-1.03.76-2.1-1.02-2.1-1.8,1.7-1.99,2.09-1.15,2.41-3.94.5-3.06-2.34.15-.49,1.43-1.71,1.81-1.43Z"/>
  <path class="cls-21" d="M36.92,118.43c-.55-1.34,2.46-.78,2.64-.96-.07-.4-.14-2.77-.24-2.88-.09-.1-2.21.07-2.64,0-.23-1.52,2.77-.92,3.95-.96.56-.02,1.52-.56,1.92,0,.75,1.05-2.18.62-2.28.72-.11.11.08,2.64,0,3.12.51.24,2.83-.57,2.64.35-.22.35-.47.33-.83.37-.4.05-1.5.23-1.69.23h-3.48Z"/>
  <path class="cls-21" d="M95.9,183.64c-.15-.13-.12-2.18-1.99-1.64-2.03.59.87,1.96,1.25,2.26,2.27,1.78.32,3.92-2.14,2.86-1.45-.63-1.93-2.74-.84-2.51.5.11.14,1.23.74,1.66.44.32,2.04.65,2.35-.05.53-1.21-1.2-1.54-1.88-2.1-3.28-2.69,2.96-4.49,3.46-.86-.07.33-.79.51-.94.38Z"/>
  <path class="cls-21" d="M177.89,64.73c-1.02-1.63-.11-.98.18-1.24.13-.11.15-.8.42-1.16.91-1.22,2.46.11,3.23.84-.95.37-1.98-.66-2.63.48,0,.27,1.45.82,1.76.78.52-.06,1.02-.98,1.6-.56.79.57.18,1.95-.73,2.2-.82.23-2.25-.55-3.12-.62-.21-.24-.54-.43-.72-.72Z"/>
  <path class="cls-21" d="M61.37,167.34c.45.37,3.17-3.1,3.48-3.11.15,0,.44.35.24.72-.12.24-3.58,3.77-3.84,3.83s-.5-.17-.57-.4c-.32-1.04,1.08-4.05.93-5.36-.6.24-3.01,3.11-3.23,3.11-.09,0-.41-.36-.36-.59.06-.28,3.91-4.02,4.19-3.96.38.08.37.71.35,1.04-.09,1.38-.8,3.33-1.18,4.71Z"/>
  <path class="cls-21" d="M46.75,136.41l-2.39.84c.41.48.77,2.41,1.18,2.66.18.11,3.3-1.43,2.37.07-.15.25-5.27,2.16-5.48,1.95-.85-.86,2.05-1.35,2.14-1.45.35-.4-.76-2.24-.72-2.85-.37-.33-3.8,1.64-2.75-.02.32-.51,4.6-1.6,5.4-2.15l.24.96Z"/>
  <path class="cls-21" d="M43.12,121.76c-.71.12-5.27,3.15-5.48,2.9-.1-.12-.04-.76.15-.98.56-.64,1.37-.04,1.29-1.77-.12-2.49-.96-1.14-1.91-1.94-.25-.21-.38-.68-.25-.83.21-.23,5.75,1.36,6,1.55.31.24.3.71.2,1.06ZM41.95,121.31l-2.15-.48v1.68s2.15-1.19,2.15-1.19Z"/>
  <path class="cls-21" d="M142.41,180.52c-.98.55-1.36-.28-2.27-.26-2.51.05-1.96,4.64.93,4.32,1.51-.17,1.06-1.9,1.34-2.14.15-.13.86.03.93.38.4,1.9-3.38,4.12-5.12,1.29-1.96-3.2,1.71-6.58,4.19-3.59Z"/>
  <path class="cls-21" d="M179.57,154.88c-.86,1.55-1.66-.18-2.87,1.08-1.87,1.95.25,2.1-.01,3.09-.06.23-.51.52-.71.38-.3-.21-2.63-4.69-3.12-5.39.28-.41.63-.39,1.07-.37,1.64.06,3.88,1.22,5.65,1.21ZM174.05,154.64l1.32,1.91c1.61-1.65.42-1.78-1.32-1.91Z"/>
  <path class="cls-21" d="M55.98,158.95c.51-.16.77-3.73,1.56-3.12.53.41-.69,2.91-.48,3.11.57.19,3.08-.47,3.11.36.02.67-2.72.07-3.3.65-.39.4-.57,2.63-1.02,3.3-1.27-.45.36-2.99,0-3.35-1.09-.17-3.15.59-3.36-.96h3.48Z"/>
  <path class="cls-21" d="M129.18,182.74c.44.25,2.67,4.56,3.4,5.22-1.36.93-1.16-1.36-2.17-1.33-.23,0-2.02.35-2.1.42-.53.47.34,2.4-1.24,1.87.48-1.23.58-5.25,1.17-6.09.17-.24.72-.21.94-.09ZM130.18,186.04l-1.43-2.16-.24,2.4,1.68-.24Z"/>
  <path class="cls-21" d="M191.31,124.19c.1.1.04.65-.24.84-.34.23-1.15.08-1.53.34-.2.14-.59,2.08-.55,2.32.09.53,2.4.92,1.23,1.78-.74-.49-4.91-2.81-5.11-3.28-.1-.22-.14-.66.1-.83.26-.17,5.88-1.39,6.09-1.17ZM188.68,125.63c-.35-.02-.7-.01-1.05.03s-1.46.12-1.59.45c.79.14,1.44.69,2.04,1.2l.6-1.67Z"/>
  <path class="cls-21" d="M187.31,113.71c-.56.67-.35,1.77.28,2.34,1.77,1.58,5.42-.26,3.59-2.4-.61-.71-1.46-.03-.83-1.45,2.78.53,2.55,4.73-.18,5.22-3.9.7-5.59-3.69-1.98-5.22.29,1.12-.55,1.1-.89,1.5Z"/>
  <path class="cls-21" d="M147.92,175.73s.64-.2.72-.14c1.22.92,1.45,4.99,4.01,3.79,2.18-1.02-.99-3.92-1.29-5.08-.09-.34.32-.5.5-.73,1.5,1.86,4.05,6.13.13,6.86-2.03.38-4.31-4.46-4.08-4.7Z"/>
  <path class="cls-21" d="M49.39,142.41l.12.72-4.08,4.55c-1.38-.42.58-1.67.6-2.27,0-.33-.8-1.91-1.11-2.01-.62-.2-1.49.27-2-.4l1.8-.6h4.68ZM48.43,143.13l-2.4.24.48,1.44c.33.25,1.7-1.31,1.91-1.68Z"/>
  <path class="cls-21" d="M67.49,166.86c.3-.07.66.3.59.59-.2.87-4.08,3.29-2.15,4.79,2.16,1.68,3.2-2.18,4.55-2.88.42-.22.46-.04.72.24-1.55,1.77-3.48,5.74-6,2.89-.78-.88-.82-1.49-.32-2.51.18-.37,2.41-3.1,2.61-3.14Z"/>
  <path class="cls-21" d="M136.89,182.44c-.55.64-1.57-.52-2.26-.48-3.01.19-1.39,6.07,1.4,4.29,1.02-.65.02-2.04,1.58-1.65,0,2.65-3.42,3.76-4.9,1.43-1.61-2.54.25-5.8,3.16-4.6.24.1,1.12.89,1.02,1.01Z"/>
  <path class="cls-21" d="M77.92,179.81c1.16-.62,2.76-2.81,3.84-3.23.37-.15.96-.1.95.23-.01.28-3.83,3.29-4.3,3.6-.26.17-.41.47-.84.35-1.02-.3.45-5.48.11-6.47.52-.07.91.02.97.6l-.72,4.92Z"/>
  <path class="cls-21" d="M123.95,183.65c.93.81-2.99.84-3.11.96-.08.08-.07,1.36.22,1.57.75.54,2.65-1.02,2.89.58l-2.88.24c-.2.73.34,1.64.25,2.27-.11.86-.85.86-.98-.22-.21-1.71-.28-3.45-.47-5.16l4.08-.24Z"/>
  <path class="cls-21" d="M181.96,139.29c.43-.15,1.48.63,1.68.48.15-.11.61-2.05.85-2.4.19-.28.8-.04.84,0,.15.17-.9,2.05-.94,2.49.16.7,2.54.67,2.38,1.46-.1.49-.61.26-.9.19-1.61-.38-3.19-1.45-4.85-1.75.19-.63,1.08-3.96,1.8-3.83.58.1.14.59.08.79-.24.87-.7,1.68-.92,2.56Z"/>
  <path class="cls-21" d="M190.84,88.71c-.09-.68.5-1.04.67-1.61.21-.71-.28-1.99,1.13-1.97,2.59.03.94,4.03-.44,4-.29,0-.81-.29-1.12-.42-.07-.03-.18.03-.24,0Z"/>
  <path class="cls-21" d="M117.24,32.36c.06-1.61.86-3.15,2.63-2.02,1.08.69,2.01,1.86.85,2.98-1.04-.72-2.21-1.09-3.48-.95Z"/>
  <path class="cls-21" d="M157.27,170.7c-.61-.66,2.97-2.94,3.48-3.35,1.1.92-1.09.96-.81,1.98.21.76,2.99,3.19,2.85,3.88-.05.23-.41.45-.73.25-.66-.43-2.31-3.57-3.03-3.7-.43-.07-1.49,1.23-1.76.93Z"/>
  <path class="cls-21" d="M43.71,71.28c.73-.95,3.4-1.33,3.75.26-.08.47-2.52,1.6-3,1.58-.66-.03-1.2-1.26-.75-1.84Z"/>
  <path class="cls-21" d="M48.94,153.7c.13-.23,4.2-2.79,4.46-2.86.29-.07.79.07.78.31,0,.48-4.27,2.85-4.3,3.11-.01.17,2.2,2.78,1.06,2.76-.2,0-2.26-2.9-2.01-3.32Z"/>
  <path class="cls-21" d="M83.72,37.93c-.33.32-.03,1.12-.77.91.4-1.03-.72-1.56-.85-2.14-.07-.3.49-1.4.75-1.46.16-.03,2.36.9,2.48,1.36.27,1.04-1.25,1-1.6,1.33Z"/>
  <path class="cls-21" d="M102.44,36.99c.28-.23,2.34-.85,2.8-.93.3-.06.64-.08.73.27.36,1.42-3.91,2.71-4.08,1.67.08-.27.36-.84.55-1Z"/>
  <path class="cls-21" d="M177.17,68.09c1.11.15,1.93.83,3.11.35.32-.13.58-.95,1.2-.24.82.94-.44,1.9-1.49,1.76-.84-.11-2.6-.96-2.82-1.87Z"/>
  <path class="cls-21" d="M99.02,182.45c-.64,1.53-.66,3.42-1.16,4.95-.4,1.23-1.03,1.02-.9-.17.18-1.55,1.07-3.39,1.1-5.03l.96.24Z"/>
  <path class="cls-21" d="M51.06,145.77c.24.24-.1.7-.39.93s-4.27,2.38-4.53,2.36c-.14-.01-.59-.49-.59-.53,0-.31,5.26-3,5.51-2.76Z"/>
  <path class="cls-21" d="M74.56,178.85c-.28.07-.64-.14-.71-.38-.1-.38,2.15-3.93,2.57-4.58s1.09-.33.82.33c-.64,1.53-2.18,3-2.68,4.64Z"/>
  <path class="cls-21" d="M56.55,155.32c-1.44.53-3.02,2.48-4.28,3.03-.34.15-.66.02-.72-.25-.08-.4.34-.46.54-.65.43-.39,3.87-3.05,4.13-3.06.21,0,.51.65.33.92Z"/>
  <path class="cls-21" d="M188.41,135.96c.09.11.25,1.03-.3.91-1.2-.28-3.93-1.17-5.09-1.63-.36-.15-.54-.03-.33-.62.17-.48.42-.23.65-.19.5.08,4.9,1.33,5.07,1.53Z"/>
  <path class="cls-21" d="M161.71,166.38c.48-.1,3.09,3.67,3.84,4.07.06,1.47-.99.25-1.45-.23-.5-.53-2.39-2.65-2.64-3.12-.17-.33-.01-.67.25-.72Z"/>
  <path class="cls-21" d="M60.8,160.17c.25-.04.57.24.57.34,0,.3-4.14,4.01-4.43,3.95-.26-.05-.41-.4-.25-.72.12-.24,3.84-3.53,4.11-3.57Z"/>
  <path class="cls-21" d="M177.65,59.94c-.02.94-.05,2.26-1.02,2.69-2.32,1.03-.37-3,1.02-2.69Z"/>
  <path class="cls-21" d="M48.5,77.12c-.32-.27-1.33-2.27-1.03-2.56.64-.63,2.15,1.56,2.29,2.15.22.91-.73.86-1.26.42Z"/>
  <path class="cls-8" d="M156.55,141.45c-5.9.64-12.43.23-18.46.24l18.46-.24Z"/>
  <path class="cls-4" d="M123.71,127.54c.2-4.2-.06-8.6,0-12.83,0-.41-.15-1.07.24-1.32-.13,4.26.05,8.56,0,12.83,0,.41.15,1.07-.24,1.32Z"/>
  <path class="cls-17" d="M118.67,128.5c-.28-1.42-.21-2.39-.24-3.84.54,1.08.1,2.62.24,3.84Z"/>
  <path class="cls-18" d="M99.01,152h-3.36c.85-.41,2.55-.4,3.36,0Z"/>
  <path class="cls-18" d="M118.43,118.19c-.44-.8-.24-2.13-.24-3.12.44.8.24,2.13.24,3.12Z"/>
  <path class="cls-10" d="M85.83,124.19c-.41-.69-.4-2.24,0-2.88-.05.95.02,1.92,0,2.88Z"/>
  <path class="cls-15" d="M113.16,129.46c-.41-.61-.4-2.08,0-2.64,0,.88,0,1.76,0,2.64Z"/>
  <path class="cls-23" d="M69.53,101.89c.04-.84-.23-1.99.24-2.64-.04.84.23,1.99-.24,2.64Z"/>
  <path class="cls-23" d="M68.09,124.91c-.44-.55-.24-1.65-.24-2.4.45.56.22,1.64.24,2.4Z"/>
  <path class="cls-18" d="M118.19,109.56c0-.75-.2-1.85.24-2.4,0,.75.2,1.85-.24,2.4Z"/>
  <path class="cls-9" d="M113.4,134.02c-.43-.47-.24-1.48-.24-2.16.43.47.25,1.49.24,2.16Z"/>
  <path class="cls-4" d="M166.62,111.72c-.43-.47-.24-1.48-.24-2.16.43.47.23,1.48.24,2.16Z"/>
  <path class="cls-18" d="M120.59,159.67c-.48-.07-1.91.21-1.92-.24.45.09,1.76-.24,1.92.24Z"/>
  <path class="cls-4" d="M166.86,116.28c-.43-.4-.24-1.32-.24-1.92.43.4.23,1.32.24,1.92Z"/>
  <path class="cls-26" d="M95.42,80.07c-.4.43-1.32.24-1.92.24.4-.43,1.32-.23,1.92-.24Z"/>
  <path class="cls-16" d="M167.1,120.35c-.42-.33-.23-1.15-.24-1.68.43.33.22,1.15.24,1.68Z"/>
  <path class="cls-1" d="M67.85,116.76c0-.53-.18-1.35.24-1.68-.01.53.18,1.35-.24,1.68Z"/>
  <path class="cls-7" d="M134.98,141.69c-.33.42-1.15.23-1.68.24.33-.42,1.15-.23,1.68-.24Z"/>
  <path class="cls-23" d="M166.38,107.41c-.43-.33-.21-1.15-.24-1.68.42.33.23,1.15.24,1.68Z"/>
  <path class="cls-4" d="M128.5,142.17c-.33.42-1.15.23-1.68.24.33-.42,1.15-.23,1.68-.24Z"/>
  <path class="cls-4" d="M79.83,118.19c-.42-.33-.23-1.15-.24-1.68.42.33.24,1.15.24,1.68Z"/>
  <path class="cls-23" d="M100.69,84.87c-.56,0-1.12-.02-1.68,0,.3-.4,1.38-.4,1.68,0Z"/>
  <path class="cls-18" d="M150.08,81.75c-.62-.09-1.01-.1-1.68-.24.52.06,1.34-.22,1.68.24Z"/>
  <path class="cls-4" d="M79.59,112.68c0-.53-.18-1.35.24-1.68-.01.53.18,1.35-.24,1.68Z"/>
  <path class="cls-4" d="M113.16,124.67c0-.53-.18-1.35.24-1.68,0,.53.18,1.35-.24,1.68Z"/>
  <path class="cls-19" d="M107.41,102.85c.05-.46-.06-.98,0-1.44.39.23.39,1.2,0,1.44Z"/>
  <path class="cls-4" d="M131.62,141.93c-.26.4-.99.23-1.44.24.26-.4.99-.23,1.44-.24Z"/>
  <path class="cls-4" d="M112.68,105.01c.03-.45-.18-1.17.24-1.44-.04.66-.16.93-.24,1.44Z"/>
  <path class="cls-18" d="M75.52,108.6c0-.45-.16-1.18.24-1.44,0,.45.16,1.18-.24,1.44Z"/>
  <path class="cls-25" d="M167.82,126.35v-1.44c.13.83.25.41,0,1.44Z"/>
  <path class="cls-4" d="M117.47,155.35c0-.55-.16-1.02.24-1.44-.01.54.17,1.03-.24,1.44Z"/>
  <path class="cls-22" d="M96.62,88.47c-.2.39-.81.23-1.2.24.1,0,.7-.21,1.2-.24Z"/>
  <path class="cls-12" d="M100.45,88.23c-.2.39-.81.23-1.2.24.08,0,.7-.21,1.2-.24Z"/>
  <path class="cls-18" d="M108.12,87.75c-.2.39-.81.23-1.2.24.07,0,.66-.23,1.2-.24Z"/>
  <path class="cls-18" d="M86.07,131.14c-.01-.15-.21-.65-.24-1.2.39.2.23.81.24,1.2Z"/>
  <path class="cls-13" d="M66.65,86.79c-.46-.09-.71-.12-1.2-.24l1.2.24Z"/>
  <path class="cls-4" d="M97.34,141.93c-.06,0-.69.21-1.2.24.2-.39.81-.23,1.2-.24Z"/>
  <path class="cls-2" d="M108.6,151.76c-.32-.04-.88-.04-1.2,0,.16-.38,1.04-.38,1.2,0Z"/>
  <path class="cls-6" d="M118.67,151.76c-.31-.04-.89-.04-1.2,0,.16-.38,1.04-.38,1.2,0Z"/>
  <path class="cls-20" d="M151.28,125.15c-.39-.2-.23-.81-.24-1.2.05.33.17.71.24,1.2Z"/>
  <path class="cls-7" d="M112.92,101.89c-.39-.2-.23-.81-.24-1.2.13.51.19.58.24,1.2Z"/>
  <path class="cls-18" d="M75.76,99.01c0-.06-.21-.7-.24-1.2.39.2.23.81.24,1.2Z"/>
  <path class="cls-20" d="M123.95,111.24c.01-.38-.15-.99.24-1.2-.03.48-.24,1.14-.24,1.2Z"/>
  <path class="cls-18" d="M88.23,88.94c-.2.39-.81.23-1.2.24.21-.02.66-.2,1.2-.24Z"/>
  <path class="cls-4" d="M81.51,132.58c-.39-.2-.23-.81-.24-1.2.03.27.18.71.24,1.2Z"/>
  <path class="cls-20" d="M94.7,142.17c-.12,0-.63.23-1.2.24.2-.39.81-.23,1.2-.24Z"/>
  <path class="cls-2" d="M105.01,155.59c-.02-.09-.26-.25-.26-.6s.24-.5.26-.6v1.2Z"/>
  <path class="cls-21" d="M99.49,137.61l-1.2-.24c-2.63-.05-4.65,1.37-6.16-1.63-.59-1.17-.62-1.94-.79-3.17-.19-.99-.19-1.94,0-2.88.15-3.53.4-3.2,3.6-3.6l1.2-.24c1.87-.11,3.86.04,5.75,0,.62-.18,1.26-.26,1.92-.24.9-.03,3.88-.21,4.33.34.28.34.91,5.21.94,6.02.04,1.02.02,1.87-.71,2.64-.62.66-5.78,3.17-6.62,3.21-.54.02-1.55-.19-2.26-.22Z"/>
  <path class="cls-21" d="M94.15,93.79c.62-.18,4.93-.17,5.71-.06,2.24.3.44,4.25-.92,5.09-1.75,1.09-4.13.28-5.1-1.48-.54-.98-1.14-3.14.3-3.56Z"/>
  <path class="cls-4" d="M91.34,132.58c-.11-.82-.62-2.09,0-2.88-.04.95.03,1.92,0,2.88Z"/>
  <path class="cls-23" d="M103.81,125.63c-.41.01-1.19.23-1.92.24.41-.48,1.32-.16,1.92-.24Z"/>
  <path class="cls-4" d="M96.14,125.87c-.2.39-.81.23-1.2.24.24-.03.62-.21,1.2-.24Z"/>
  <path class="cls-14" d="M99.49,137.61c-.51-.02-1.14-.24-1.2-.24.38.01.99-.15,1.2.24Z"/>
  <path class="cls-21" d="M140.97,86.79c.36-.22.83-.22,1.2,0,.79.12,3.92,1.6,4.45,2.14.62.64.57,2.05.59,2.89.18.44.18.92,0,1.44-1,4.42-1.87,6.47-1.92,11.27l-.24,3.6c-.05,3.95-.76,8.22-.48,12.1.36,4.84,2.36,9.65,2.63,14.51-2.96.18-5.94-.49-8.78.47-.8.03-1.1-.51-1.04-1.28.08-1.01.75-2.69.92-3.9.17-1.14.22-2.29.27-3.44v-10.79c0-1.12,0-2.24,0-3.36l.24-2.64c0-.4.02-.8,0-1.2-.17-.7-.25-1.42-.24-2.16-.09-.89-.14-1.84-.27-2.72-.45-3.02-2.17-8.34-2.04-11.03.1-2.06,2.65-5.63,4.71-5.91Z"/>
  <path class="cls-7" d="M138.57,126.58c.15-3.52,0-7.24,0-10.79v10.79Z"/>
  <path class="cls-3" d="M145.05,108.12c.02-1.14-.21-2.6.24-3.6-.01,1.14.21,2.6-.24,3.6Z"/>
  <path class="cls-24" d="M138.57,112.44c0-.83-.2-2.01.24-2.64,0,.83.2,2-.24,2.64Z"/>
  <path class="cls-4" d="M138.81,108.6c-.5-.49-.15-1.48-.24-2.16.07.69.2,1.31.24,2.16Z"/>
  <path class="cls-18" d="M147.2,93.26c0-.48,0-.96,0-1.44.63.42.08,1.08,0,1.44Z"/>
  <path class="cls-4" d="M142.17,86.79c-.29-.04-.91-.04-1.2,0,.16-.38,1.04-.38,1.2,0Z"/>
  <path class="cls-11" d="M128.72,157.54c.41.27.42,2.69-.58,2.55s-.79-3.46.58-2.55Z"/>
  <path class="cls-5" d="M128.15,153.44c.8-.16.79,1.81.23,1.92-.8.16-.79-1.81-.23-1.92Z"/>
  <path class="cls-11" d="M108.57,153.71c.46.29.43,2.9-.77,2.58-1.54-.41-.75-3.52.77-2.58Z"/>
</svg>